# xmcd
#
# Track frame offsets: 
#        150
#        23829
#        47000
#        73784
#        93618
#        114542
#        137220
#        163873
#
# Disc length: 2484 seconds
#
# Revision: 0
# Processed by: cddbd v1.5.1PL2 Copyright (c) Steve Scherf et al.
# Submitted via: ExactAudioCopy v0.95b4
#
DISCID=7009b208
DTITLE=Dave Baboian - 1985 - Demo
DYEAR=1985
DGENRE=Rock
TTITLE0=She Don't Want To Know
TTITLE1=Get Back On That Road
TTITLE2=You're Like The Ocean
TTITLE3=Nothing Left But Memories
TTITLE4=Home
TTITLE5=Everybody
TTITLE6=Drum Solo
TTITLE7=Here Tonight
EXTD=
EXTT0=
EXTT1=
EXTT2=
EXTT3=
EXTT4=
EXTT5=
EXTT6=
EXTT7=
PLAYORDER=
